<svg preserveAspectRatio="none" width="100%" height="100%" overflow="visible" style="display: block;" viewBox="0 0 15 11.8735" fill="none" xmlns="http://www.w3.org/2000/svg">
<path id="Vector" d="M0 2.18676C0 2.021 0.0658481 1.86203 0.183058 1.74482C0.300269 1.62761 0.45924 1.56176 0.625 1.56176H3.52891C3.66362 1.11049 3.94038 0.714748 4.31803 0.433368C4.69568 0.151989 5.15405 0 5.625 0C6.09595 0 6.55432 0.151989 6.93197 0.433368C7.30962 0.714748 7.58638 1.11049 7.72109 1.56176H14.375C14.5408 1.56176 14.6997 1.62761 14.8169 1.74482C14.9342 1.86203 15 2.021 15 2.18676C15 2.35252 14.9342 2.51149 14.8169 2.6287C14.6997 2.74591 14.5408 2.81176 14.375 2.81176H7.72109C7.58638 3.26303 7.30962 3.65878 6.93197 3.94016C6.55432 4.22154 6.09595 4.37353 5.625 4.37353C5.15405 4.37353 4.69568 4.22154 4.31803 3.94016C3.94038 3.65878 3.66362 3.26303 3.52891 2.81176H0.625C0.45924 2.81176 0.300269 2.74591 0.183058 2.6287C0.0658481 2.51149 0 2.35252 0 2.18676ZM14.375 9.06176H12.7211C12.5864 8.61049 12.3096 8.21475 11.932 7.93337C11.5543 7.65199 11.0959 7.5 10.625 7.5C10.1541 7.5 9.69568 7.65199 9.31803 7.93337C8.94038 8.21475 8.66362 8.61049 8.52891 9.06176H0.625C0.45924 9.06176 0.300269 9.12761 0.183058 9.24482C0.0658481 9.36203 0 9.521 0 9.68676C0 9.85252 0.0658481 10.0115 0.183058 10.1287C0.300269 10.2459 0.45924 10.3118 0.625 10.3118H8.52891C8.66362 10.763 8.94038 11.1588 9.31803 11.4402C9.69568 11.7215 10.1541 11.8735 10.625 11.8735C11.0959 11.8735 11.5543 11.7215 11.932 11.4402C12.3096 11.1588 12.5864 10.763 12.7211 10.3118H14.375C14.5408 10.3118 14.6997 10.2459 14.8169 10.1287C14.9342 10.0115 15 9.85252 15 9.68676C15 9.521 14.9342 9.36203 14.8169 9.24482C14.6997 9.12761 14.5408 9.06176 14.375 9.06176Z" fill="var(--fill-0, #F7F7F8)"/>
</svg>
