<svg preserveAspectRatio="none" width="100%" height="100%" overflow="visible" style="display: block;" viewBox="0 0 17.4776 17.4779" fill="none" xmlns="http://www.w3.org/2000/svg">
<path id="Vector" d="M2.21878 7.13413C2.10267 7.01805 2.01057 6.88024 1.94774 6.72856C1.8849 6.57689 1.85256 6.41432 1.85256 6.25014C1.85256 6.08597 1.8849 5.9234 1.94774 5.77172C2.01057 5.62005 2.10267 5.48224 2.21878 5.36616L7.21878 0.366158C7.45322 0.131711 7.7712 -2.4703e-09 8.10276 0C8.43432 2.4703e-09 8.7523 0.131711 8.98675 0.366158C9.22119 0.600606 9.3529 0.918584 9.3529 1.25014C9.3529 1.5817 9.22119 1.89968 8.98675 2.13413L3.98675 7.13413C3.87067 7.25023 3.73286 7.34233 3.58118 7.40517C3.42951 7.468 3.26694 7.50034 3.10276 7.50034C2.93858 7.50034 2.77602 7.468 2.62434 7.40517C2.47267 7.34233 2.33485 7.25023 2.21878 7.13413ZM17.1117 8.49116C16.9957 8.37506 16.8579 8.28296 16.7062 8.22012C16.5545 8.15728 16.3919 8.12494 16.2278 8.12494C16.0636 8.12494 15.901 8.15728 15.7493 8.22012C15.5977 8.28296 15.4599 8.37506 15.3438 8.49116L10.3438 13.4912C10.1095 13.7256 9.97795 14.0434 9.97795 14.3748C9.97795 14.7061 10.1095 15.0239 10.3438 15.2583C10.4599 15.3744 10.5977 15.4665 10.7493 15.5294C10.901 15.5922 11.0636 15.6246 11.2278 15.6246C11.3919 15.6246 11.5545 15.5922 11.7062 15.5294C11.8579 15.4665 11.9957 15.3744 12.1117 15.2583L17.1117 10.2583C17.346 10.0239 17.4776 9.70613 17.4776 9.37475C17.4776 9.04337 17.346 8.72556 17.1117 8.49116ZM14.1696 7.05835L10.4196 3.30835C10.3024 3.19122 10.1435 3.12543 9.97776 3.12543C9.81207 3.12543 9.65316 3.19122 9.53597 3.30835L5.16096 7.68335C5.04384 7.80054 4.97805 7.95945 4.97805 8.12514C4.97805 8.29083 5.04384 8.44974 5.16096 8.56694L6.14925 9.55835L0.343777 15.3669C0.119252 15.6033 -0.00407065 15.918 0.000102564 16.2439C0.00427578 16.5699 0.135615 16.8813 0.366117 17.1118C0.596618 17.3423 0.908045 17.4736 1.234 17.4778C1.55995 17.482 1.87464 17.3587 2.11096 17.1341L7.91956 11.3287L8.91097 12.3201C9.02816 12.4372 9.18707 12.503 9.35276 12.503C9.51845 12.503 9.67736 12.4372 9.79456 12.3201L14.1696 7.94506C14.228 7.88698 14.2744 7.8179 14.3061 7.74181C14.3377 7.66572 14.354 7.58412 14.354 7.50171C14.354 7.41929 14.3377 7.33769 14.3061 7.2616C14.2744 7.18551 14.228 7.11643 14.1696 7.05835Z" fill="var(--fill-0, #F7F7F8)"/>
</svg>
