<svg preserveAspectRatio="none" width="100%" height="100%" overflow="visible" style="display: block;" viewBox="0 0 17.5079 16.7319" fill="none" xmlns="http://www.w3.org/2000/svg">
<path id="Vector" d="M17.3086 6.51306C17.2892 6.4257 17.2513 6.34351 17.1974 6.27208C17.1434 6.20064 17.0748 6.14162 16.9961 6.099L15.1367 5.06775C15.0378 4.86463 14.9284 4.66931 14.8086 4.48181L14.8399 2.35681C14.8406 2.26768 14.8229 2.17936 14.788 2.09737C14.753 2.01537 14.7015 1.94146 14.6367 1.88025C13.7109 1.04085 12.6161 0.409498 11.4258 0.0286873C11.3403 0.00203479 11.2502 -0.00617568 11.1613 0.00459823C11.0724 0.0153721 10.9868 0.0448852 10.9102 0.0911874L9.08986 1.18494C8.8633 1.17712 8.64455 1.17712 8.41799 1.18494L6.59768 0.0911874C6.52104 0.0448852 6.43545 0.0153721 6.34657 0.00459823C6.25769 -0.00617568 6.16753 0.00203479 6.08205 0.0286873C4.89023 0.409787 3.79489 1.04407 2.87111 1.88806C2.80575 1.94717 2.75381 2.01958 2.71877 2.10043C2.68374 2.18129 2.66642 2.26871 2.66799 2.35681L2.70705 4.48181C2.58205 4.66931 2.47268 4.86463 2.3633 5.06775L0.511738 6.099C0.432057 6.14033 0.362635 6.19897 0.308562 6.27062C0.254488 6.34226 0.217134 6.4251 0.199238 6.51306C-0.0664125 7.73315 -0.0664125 8.9961 0.199238 10.2162C0.218643 10.3036 0.256586 10.3857 0.3105 10.4572C0.364413 10.5286 0.43304 10.5876 0.511738 10.6302L2.37111 11.6615C2.47079 11.8636 2.58299 12.0593 2.70705 12.2474L2.66799 14.3724C2.66727 14.4616 2.68494 14.5499 2.71989 14.6319C2.75484 14.7139 2.80632 14.7878 2.87111 14.849C3.7982 15.6866 4.89268 16.3178 6.08205 16.7006C6.16753 16.7272 6.25769 16.7354 6.34657 16.7247C6.43545 16.7139 6.52104 16.6844 6.59768 16.6381L8.41799 15.5443H9.08986L10.918 16.6381C11.013 16.7006 11.1246 16.7332 11.2383 16.7318C11.3018 16.7291 11.3648 16.7186 11.4258 16.7006C12.6176 16.3195 13.713 15.6852 14.6367 14.8412C14.7021 14.7821 14.754 14.7097 14.7891 14.6288C14.8241 14.548 14.8414 14.4605 14.8399 14.3724L14.8086 12.2474C14.9258 12.0599 15.0352 11.8646 15.1446 11.6615L17.0039 10.6302C17.0815 10.5872 17.1489 10.5279 17.2014 10.4565C17.254 10.385 17.2906 10.303 17.3086 10.2162C17.5743 8.9961 17.5743 7.73315 17.3086 6.51306V6.51306ZM12.1914 8.36462C12.1914 9.0445 11.9898 9.7091 11.6121 10.2744C11.2344 10.8397 10.6975 11.2803 10.0694 11.5405C9.44128 11.8006 8.75011 11.8687 8.0833 11.7361C7.41649 11.6034 6.80399 11.276 6.32325 10.7953C5.8425 10.3146 5.51511 9.70206 5.38248 9.03525C5.24984 8.36844 5.31791 7.67727 5.57809 7.04915C5.83827 6.42103 6.27886 5.88417 6.84415 5.50645C7.40945 5.12873 8.07405 4.92712 8.75392 4.92712C9.66561 4.92712 10.5399 5.28929 11.1846 5.93395C11.8293 6.5786 12.1914 7.45294 12.1914 8.36462Z" fill="var(--fill-0, #F7F7F8)"/>
</svg>
