<svg preserveAspectRatio="none" width="100%" height="100%" overflow="visible" style="display: block;" viewBox="0 0 12.4306 17.5" fill="none" xmlns="http://www.w3.org/2000/svg">
<g id="Vector">
<path d="M6.21521 12.5C7.20977 12.5 8.1636 12.1049 8.86686 11.4017C9.57012 10.6984 9.96521 9.74456 9.96521 8.75V3.75C9.96521 2.75544 9.57012 1.80161 8.86686 1.09835C8.1636 0.395088 7.20977 0 6.21521 0C5.22065 0 4.26682 0.395088 3.56356 1.09835C2.8603 1.80161 2.46521 2.75544 2.46521 3.75V8.75C2.46521 9.74456 2.8603 10.6984 3.56356 11.4017C4.26682 12.1049 5.22065 12.5 6.21521 12.5Z" fill="var(--fill-0, #F7F7F8)"/>
<path d="M11.8715 8.7578C11.708 8.74018 11.5442 8.7877 11.4155 8.89007C11.2868 8.99244 11.2036 9.1414 11.184 9.30467C11.0468 10.5264 10.4642 11.6548 9.54764 12.4742C8.63106 13.2936 7.44472 13.7465 6.21528 13.7465C4.98584 13.7465 3.7995 13.2936 2.88291 12.4742C1.96633 11.6548 1.38377 10.5264 1.24653 9.30467C1.22692 9.1414 1.14376 8.99244 1.01506 8.89007C0.886372 8.7877 0.722521 8.74018 0.559027 8.7578C0.477082 8.76555 0.397516 8.78962 0.325013 8.82859C0.252509 8.86755 0.188532 8.92063 0.136847 8.98469C0.0851615 9.04875 0.0468124 9.1225 0.024056 9.2016C0.00129969 9.28071 -0.00540409 9.36356 0.00433941 9.44529C0.164184 10.8634 0.806274 12.1835 1.82313 13.1847C2.83999 14.1859 4.16991 14.8075 5.59028 14.9453V16.875C5.59028 17.0407 5.65612 17.1997 5.77334 17.3169C5.89055 17.4341 6.04952 17.5 6.21528 17.5C6.38104 17.5 6.54001 17.4341 6.65722 17.3169C6.77443 17.1997 6.84028 17.0407 6.84028 16.875V14.9453C8.26064 14.8075 9.59056 14.1859 10.6074 13.1847C11.6243 12.1835 12.2664 10.8634 12.4262 9.44529C12.436 9.36356 12.4293 9.28071 12.4065 9.2016C12.3837 9.1225 12.3454 9.04875 12.2937 8.98469C12.242 8.92063 12.178 8.86755 12.1055 8.82859C12.033 8.78962 11.9535 8.76555 11.8715 8.7578Z" fill="var(--fill-0, #F7F7F8)"/>
</g>
</svg>
